<?xml version="1.0" encoding="utf-8"?>
<!-- Generator: Adobe Illustrator 16.0.4, SVG Export Plug-In . SVG Version: 6.00 Build 0)  -->
<!DOCTYPE svg PUBLIC "-//W3C//DTD SVG 1.1//EN" "http://www.w3.org/Graphics/SVG/1.1/DTD/svg11.dtd">
<svg version="1.1" id="Layer_3" xmlns="http://www.w3.org/2000/svg" xmlns:xlink="http://www.w3.org/1999/xlink" x="0px" y="0px"
	 width="792px" height="612px" viewBox="0 0 792 612" enable-background="new 0 0 792 612" xml:space="preserve">
<radialGradient id="SVGID_1_" cx="259" cy="221" r="363.0565" gradientTransform="matrix(1 0 0 1 26.5198 -9.3071)" gradientUnits="userSpaceOnUse">
	<stop  offset="0" style="stop-color:#FFFFFF"/>
	<stop  offset="0.5" style="stop-color:#4C6B97"/>
	<stop  offset="1" style="stop-color:#000000"/>
</radialGradient>
<ellipse fill="url(#SVGID_1_)" cx="396" cy="306" rx="276.48" ry="145.439"/>
<ellipse fill="#6181B6" cx="396" cy="306" rx="265.68" ry="134.641"/>
<g>
	<path fill="#FFFFFF" d="M449.818,349.518c0,0,13.18-67.825,13.18-67.825c2.973-15.309,0.5-26.729-7.351-33.943
		c-7.603-6.982-20.511-10.376-39.461-10.376h-22.822l6.532-33.606c0.246-1.267-0.087-2.577-0.907-3.572
		c-0.821-0.995-2.044-1.572-3.334-1.572h-31.5c-2.068,0-3.846,1.465-4.241,3.496l-13.995,72.006
		c-1.273-8.102-4.408-15.068-9.427-20.813c-9.239-10.576-23.854-15.938-43.441-15.938h-61.055c-2.068,0-3.846,1.465-4.24,3.496
		l-28.328,145.75c-0.246,1.267,0.086,2.576,0.907,3.571c0.82,0.995,2.043,1.572,3.333,1.572h31.75c2.068,0,3.846-1.466,4.24-3.495
		l6.852-35.255h23.634c12.404,0,22.82-1.344,30.957-3.993c8.318-2.704,15.972-7.291,22.721-13.607
		c5.451-5.01,9.957-10.617,13.424-16.668l-5.661,29.125c-0.246,1.267,0.086,2.576,0.907,3.571s2.043,1.572,3.333,1.572h31.5
		c2.068,0,3.846-1.466,4.241-3.495l15.547-80.005h21.614c9.21,0,11.906,1.834,12.639,2.623c0.667,0.719,2.052,3.254,0.5,11.245
		l-12.532,64.488c-0.246,1.267,0.087,2.576,0.908,3.571c0.82,0.995,2.043,1.572,3.333,1.572h32
		C447.645,353.013,449.423,351.547,449.818,349.518z M303.78,293.477c-1.979,10.167-5.707,17.419-11.083,21.558
		c-5.461,4.205-14.198,6.338-25.966,6.338H252.66l10.176-52.36h18.192c13.366,0,18.751,2.857,20.913,5.253
		C304.938,277.589,305.574,284.233,303.78,293.477z"/>
	<path fill="#FFFFFF" d="M584.524,253.312c-9.239-10.576-23.855-15.938-43.44-15.938h-61.055c-2.069,0-3.847,1.465-4.241,3.496
		l-28.328,145.75c-0.246,1.267,0.087,2.576,0.907,3.571s2.043,1.572,3.334,1.572h31.75c2.067,0,3.846-1.466,4.239-3.495
		l6.853-35.255h23.634c12.404,0,22.82-1.344,30.957-3.993c8.318-2.704,15.973-7.291,22.721-13.607
		c5.628-5.173,10.261-10.979,13.77-17.257c3.503-6.271,6.021-13.27,7.485-20.802C596.72,278.784,593.831,263.966,584.524,253.312z
		 M551.596,293.477c-1.979,10.167-5.707,17.419-11.082,21.558c-5.462,4.205-14.198,6.338-25.966,6.338h-14.073l10.177-52.36h18.192
		c13.366,0,18.751,2.857,20.913,5.253C552.754,277.589,553.39,284.233,551.596,293.477z"/>
</g>
<g>
	<path d="M281.028,264.693c12.062,0,20.102,2.227,24.121,6.68c4.016,4.453,4.973,12.098,2.871,22.93
		c-2.195,11.281-6.422,19.333-12.688,24.157s-15.801,7.234-28.602,7.234h-19.312l11.855-61H281.028z M203.669,387.443h31.75
		l7.531-38.75h27.195c12,0,21.871-1.258,29.621-3.782c7.75-2.519,14.793-6.746,21.133-12.68c5.32-4.89,9.625-10.284,12.922-16.184
		c3.293-5.894,5.633-12.402,7.016-19.519c3.359-17.277,0.824-30.734-7.598-40.375s-21.82-14.461-40.188-14.461h-61.055
		L203.669,387.443z"/>
	<path d="M364.155,202.943h31.5l-7.531,38.75h28.062c17.656,0,29.836,3.082,36.539,9.238c6.703,6.16,8.711,16.141,6.031,29.938
		l-13.18,67.825h-32l12.531-64.489c1.426-7.336,0.902-12.34-1.574-15.008s-7.746-4.004-15.805-4.004h-25.176l-16.227,83.5h-31.5
		L364.155,202.943z"/>
	<path d="M528.844,264.693c12.062,0,20.102,2.227,24.121,6.68c4.017,4.453,4.973,12.098,2.871,22.93
		c-2.195,11.281-6.421,19.333-12.688,24.157c-6.266,4.824-15.801,7.234-28.601,7.234h-19.312l11.854-61H528.844z M451.485,387.443
		h31.75l7.53-38.75h27.195c12,0,21.871-1.258,29.621-3.782c7.75-2.519,14.793-6.746,21.133-12.68
		c5.32-4.89,9.625-10.284,12.922-16.184c3.293-5.894,5.633-12.402,7.016-19.519c3.359-17.277,0.825-30.734-7.598-40.375
		c-8.422-9.641-21.819-14.461-40.188-14.461h-61.055L451.485,387.443z"/>
</g>
</svg>
